<?xml version="1.0" encoding="UTF-8" standalone="no"?>
<svg width="56px" height="60px" viewBox="0 0 56 60" version="1.1" xmlns="http://www.w3.org/2000/svg" xmlns:xlink="http://www.w3.org/1999/xlink" xmlns:sketch="http://www.bohemiancoding.com/sketch/ns">
    <!-- Generator: Sketch 3.4 (15575) - http://www.bohemiancoding.com/sketch -->
    <title>notepad</title>
    <desc>Created with Sketch.</desc>
    <defs></defs>
    <g id="Office" stroke="none" stroke-width="1" fill="none" fill-rule="evenodd" sketch:type="MSPage">
        <g id="Icon-4" sketch:type="MSArtboardGroup" transform="translate(-4.000000, 0.000000)" fill="#000000">
            <path d="M58,49 C58,44.038 53.963,40 49,40 C44.037,40 40,44.038 40,49 C40,53.962 44.037,58 49,58 C53.963,58 58,53.962 58,49 L58,49 Z M60,49 C60,55.065 55.065,60 49,60 C42.935,60 38,55.065 38,49 C38,42.935 42.935,38 49,38 C55.065,38 60,42.935 60,49 L60,49 Z M52.293,46.293 L48,50.586 L45.707,48.293 C45.316,47.902 44.684,47.902 44.293,48.293 C43.902,48.684 43.902,49.316 44.293,49.707 L47.293,52.707 C47.488,52.902 47.744,53 48,53 C48.256,53 48.512,52.902 48.707,52.707 L53.707,47.707 C54.098,47.316 54.098,46.684 53.707,46.293 C53.316,45.902 52.684,45.902 52.293,46.293 L52.293,46.293 Z M33,46 C33.553,46 34,45.552 34,45 C34,44.448 33.553,44 33,44 L25,44 C24.447,44 24,44.448 24,45 C24,45.552 24.447,46 25,46 L33,46 Z M38,39 C38,38.448 37.553,38 37,38 L25,38 C24.447,38 24,38.448 24,39 C24,39.552 24.447,40 25,40 L37,40 C37.553,40 38,39.552 38,39 L38,39 Z M24,33 C24,33.552 24.447,34 25,34 L43,34 C43.553,34 44,33.552 44,33 C44,32.448 43.553,32 43,32 L25,32 C24.447,32 24,32.448 24,33 L24,33 Z M25,28 L39,28 C39.553,28 40,27.552 40,27 C40,26.448 39.553,26 39,26 L25,26 C24.447,26 24,26.448 24,27 C24,27.552 24.447,28 25,28 L25,28 Z M25,22 L41,22 C41.553,22 42,21.552 42,21 C42,20.448 41.553,20 41,20 L25,20 C24.447,20 24,20.448 24,21 C24,21.552 24.447,22 25,22 L25,22 Z M19,44 L17,44 C16.447,44 16,44.448 16,45 C16,45.552 16.447,46 17,46 L19,46 C19.553,46 20,45.552 20,45 C20,44.448 19.553,44 19,44 L19,44 Z M19,38 L17,38 C16.447,38 16,38.448 16,39 C16,39.552 16.447,40 17,40 L19,40 C19.553,40 20,39.552 20,39 C20,38.448 19.553,38 19,38 L19,38 Z M19,32 L17,32 C16.447,32 16,32.448 16,33 C16,33.552 16.447,34 17,34 L19,34 C19.553,34 20,33.552 20,33 C20,32.448 19.553,32 19,32 L19,32 Z M19,26 L17,26 C16.447,26 16,26.448 16,27 C16,27.552 16.447,28 17,28 L19,28 C19.553,28 20,27.552 20,27 C20,26.448 19.553,26 19,26 L19,26 Z M17,22 L19,22 C19.553,22 20,21.552 20,21 C20,20.448 19.553,20 19,20 L17,20 C16.447,20 16,20.448 16,21 C16,21.552 16.447,22 17,22 L17,22 Z M20,10 L40,10 L40,6 L34.899,6 C34.424,6 34.014,5.665 33.92,5.199 C33.543,3.345 31.895,2 30,2 C28.105,2 26.457,3.345 26.08,5.199 C25.986,5.665 25.576,6 25.101,6 L20,6 L20,10 Z M18,11 L18,5 C18,4.448 18.447,4 19,4 L24.343,4 C25.178,1.64 27.439,0 30,0 C32.561,0 34.822,1.64 35.657,4 L41,4 C41.553,4 42,4.448 42,5 L42,11 C42,11.552 41.553,12 41,12 L19,12 C18.447,12 18,11.552 18,11 L18,11 Z M30,4 C28.897,4 28,4.897 28,6 C28,7.103 28.897,8 30,8 C31.103,8 32,7.103 32,6 C32,4.897 31.103,4 30,4 L30,4 Z M45,10 L50,10 L50,35 C50,35.552 50.447,36 51,36 C51.553,36 52,35.552 52,35 L52,9 C52,8.448 51.553,8 51,8 L45,8 C44.447,8 44,8.448 44,9 C44,9.552 44.447,10 45,10 L45,10 Z M15,8 L9,8 C8.447,8 8,8.448 8,9 L8,52 C8,54.206 9.794,56 12,56 L35,56 C35.553,56 36,55.552 36,55 C36,54.448 35.553,54 35,54 L12,54 C10.897,54 10,53.103 10,52 L10,10 L15,10 C15.553,10 16,9.552 16,9 C16,8.448 15.553,8 15,8 L15,8 Z M45,6 L51,6 C52.458,6 54,7.542 54,9 L54,35 C54,35.552 54.447,36 55,36 C55.553,36 56,35.552 56,35 L56,9 C56,6.43 53.57,4 51,4 L45,4 C44.447,4 44,4.448 44,5 C44,5.552 44.447,6 45,6 L45,6 Z M38,59 C38,59.552 37.553,60 37,60 L9,60 C6.43,60 4,57.57 4,55 L4,9 C4,6.43 6.43,4 9,4 L15,4 C15.553,4 16,4.448 16,5 C16,5.552 15.553,6 15,6 L9,6 C7.542,6 6,7.542 6,9 L6,55 C6,56.458 7.542,58 9,58 L37,58 C37.553,58 38,58.448 38,59 L38,59 Z" id="notepad" sketch:type="MSShapeGroup"></path>
        </g>
    </g>
</svg>