<?xml version="1.0" encoding="UTF-8" standalone="no"?>
<svg width="60px" height="60px" viewBox="0 0 60 60" version="1.1" xmlns="http://www.w3.org/2000/svg" xmlns:xlink="http://www.w3.org/1999/xlink" xmlns:sketch="http://www.bohemiancoding.com/sketch/ns">
    <!-- Generator: Sketch 3.4 (15575) - http://www.bohemiancoding.com/sketch -->
    <title>employee-rank</title>
    <desc>Created with Sketch.</desc>
    <defs></defs>
    <g id="Business" stroke="none" stroke-width="1" fill="none" fill-rule="evenodd" sketch:type="MSPage">
        <g id="Icon-16" sketch:type="MSArtboardGroup" fill="#000000">
            <path d="M59.8680042,56.504 C60.0450042,56.814 60.0440042,57.194 59.8650042,57.502 C59.6860042,57.81 59.3560042,58 59.0000042,58 L53.0000042,58 C52.4480042,58 52.0000042,57.552 52.0000042,57 C52.0000042,56.448 52.4480042,56 53.0000042,56 L57.2770042,56 L54.1320042,50.496 C53.9560042,50.189 53.9560042,49.812 54.1320042,49.504 L57.2770042,44 L50.0000042,44 L50.0000042,59 C50.0000042,59.552 49.5520042,60 49.0000042,60 L11.0000042,60 C10.4480042,60 10.0000042,59.552 10.0000042,59 L10.0000042,44 L2.72300421,44 L5.86800421,49.504 C6.04400421,49.812 6.04400421,50.189 5.86800421,50.496 L2.72300421,56 L7.00000421,56 C7.55200421,56 8.00000421,56.448 8.00000421,57 C8.00000421,57.552 7.55200421,58 7.00000421,58 L1.00000421,58 C0.644004213,58 0.314004213,57.81 0.135004213,57.502 C-0.0439957865,57.194 -0.0449957865,56.814 0.132004213,56.504 L3.84800421,50 L0.132004213,43.496 C-0.0449957865,43.186 -0.0439957865,42.806 0.135004213,42.498 C0.314004213,42.19 0.644004213,42 1.00000421,42 L11.0000042,42 C11.5520042,42 12.0000042,42.448 12.0000042,43 L12.0000042,58 L48.0000042,58 L48.0000042,43 C48.0000042,42.448 48.4480042,42 49.0000042,42 L59.0000042,42 C59.3560042,42 59.6860042,42.19 59.8650042,42.498 C60.0440042,42.806 60.0450042,43.186 59.8680042,43.496 L56.1520042,50 L59.8680042,56.504 L59.8680042,56.504 Z M46.0000042,45 C46.0000042,44.448 45.5520042,44 45.0000042,44 L15.0000042,44 C14.4480042,44 14.0000042,44.448 14.0000042,45 C14.0000042,45.552 14.4480042,46 15.0000042,46 L45.0000042,46 C45.5520042,46 46.0000042,45.552 46.0000042,45 L46.0000042,45 Z M33.6290042,51.777 L32.5260042,52.671 L32.9680042,53.965 C33.0970042,54.342 32.9890042,54.759 32.6950042,55.028 C32.4000042,55.296 31.9740042,55.364 31.6110042,55.2 L30.0380042,54.491 L28.4330042,55.202 C28.3020042,55.26 28.1650042,55.288 28.0270042,55.288 C27.7800042,55.288 27.5350042,55.196 27.3470042,55.021 C27.0540042,54.748 26.9510042,54.328 27.0860042,53.951 L27.5560042,52.64 L26.4120042,51.809 C26.0620042,51.555 25.9150042,51.103 26.0490042,50.691 C26.1830042,50.279 26.5670042,50 27.0000042,50 L28.3820042,50 L29.1060042,48.553 C29.4440042,47.875 30.5560042,47.875 30.8950042,48.553 L31.6180042,50 L33.0000042,50 C33.4240042,50 33.8010042,50.267 33.9430042,50.666 C34.0840042,51.065 33.9580042,51.511 33.6290042,51.777 L33.6290042,51.777 Z M30.4770042,51.852 C30.3210042,51.756 30.1910042,51.618 30.1050042,51.447 L30.0000042,51.236 L29.8950042,51.447 C29.8280042,51.58 29.7340042,51.693 29.6230042,51.783 C29.7340042,51.981 29.7750042,52.215 29.7350042,52.444 C29.8340042,52.412 29.9380042,52.396 30.0410042,52.396 C30.1490042,52.396 30.2570042,52.414 30.3600042,52.448 C30.3360042,52.241 30.3780042,52.033 30.4770042,51.852 L30.4770042,51.852 Z M23.6290042,51.777 L22.5260042,52.671 L22.9680042,53.965 C23.0970042,54.342 22.9890042,54.759 22.6950042,55.028 C22.3990042,55.296 21.9740042,55.364 21.6110042,55.2 L20.0380042,54.491 L18.4330042,55.202 C18.3020042,55.26 18.1650042,55.288 18.0270042,55.288 C17.7800042,55.288 17.5350042,55.196 17.3470042,55.021 C17.0540042,54.748 16.9510042,54.328 17.0860042,53.951 L17.5560042,52.64 L16.4120042,51.809 C16.0620042,51.555 15.9150042,51.103 16.0490042,50.691 C16.1830042,50.279 16.5670042,50 17.0000042,50 L18.3820042,50 L19.1060042,48.553 C19.4440042,47.875 20.5560042,47.875 20.8950042,48.553 L21.6180042,50 L23.0000042,50 C23.4240042,50 23.8010042,50.267 23.9430042,50.666 C24.0840042,51.065 23.9580042,51.511 23.6290042,51.777 L23.6290042,51.777 Z M20.4770042,51.852 C20.3210042,51.756 20.1910042,51.618 20.1050042,51.447 L20.0000042,51.236 L19.8950042,51.447 C19.8280042,51.58 19.7340042,51.693 19.6230042,51.783 C19.7340042,51.981 19.7750042,52.215 19.7350042,52.444 C19.8340042,52.412 19.9380042,52.396 20.0410042,52.396 C20.1490042,52.396 20.2570042,52.414 20.3600042,52.448 C20.3360042,52.241 20.3780042,52.033 20.4770042,51.852 L20.4770042,51.852 Z M43.6290042,51.777 L42.5260042,52.671 L42.9680042,53.965 C43.0970042,54.342 42.9890042,54.759 42.6950042,55.028 C42.4000042,55.296 41.9750042,55.364 41.6110042,55.2 L40.0380042,54.491 L38.4330042,55.202 C38.3020042,55.26 38.1650042,55.288 38.0270042,55.288 C37.7800042,55.288 37.5350042,55.196 37.3470042,55.021 C37.0540042,54.748 36.9510042,54.328 37.0860042,53.951 L37.5560042,52.64 L36.4120042,51.809 C36.0620042,51.555 35.9150042,51.103 36.0490042,50.691 C36.1830042,50.279 36.5670042,50 37.0000042,50 L38.3820042,50 L39.1050042,48.553 C39.4440042,47.875 40.5560042,47.875 40.8950042,48.553 L41.6180042,50 L43.0000042,50 C43.4240042,50 43.8010042,50.267 43.9430042,50.666 C44.0840042,51.065 43.9590042,51.511 43.6290042,51.777 L43.6290042,51.777 Z M40.4770042,51.852 C40.3210042,51.756 40.1910042,51.618 40.1050042,51.447 L40.0000042,51.236 L39.8950042,51.447 C39.8280042,51.58 39.7340042,51.693 39.6230042,51.783 C39.7340042,51.981 39.7750042,52.215 39.7350042,52.444 C39.8350042,52.412 39.9380042,52.396 40.0410042,52.396 C40.1490042,52.396 40.2570042,52.414 40.3600042,52.448 C40.3360042,52.241 40.3780042,52.033 40.4770042,51.852 L40.4770042,51.852 Z M12.9990042,17.999 C13.5100042,18.009 13.9980042,17.553 14.0000042,17.002 C14.0020042,16.389 14.2270042,2 30.0000042,2 C32.8280042,2 33.9610042,2.612 34.1840042,2.974 C34.2160042,3.025 34.3010042,3.162 34.1050042,3.553 C33.9510042,3.863 33.9670042,4.231 34.1490042,4.526 C34.3320042,4.82 34.6530042,5 35.0000042,5 C43.8660042,5 43.9990042,14.593 44.0000042,15 L44.0000042,21 C44.0000042,21.552 44.4480042,22 45.0000042,22 C45.5510042,22 46.0000042,22.449 46.0000042,23 L46.0000042,27 C46.0000042,27.551 45.5510042,28 45.0000042,28 C44.5690042,28 44.1880042,28.275 44.0510042,28.684 C44.0220042,28.772 41.0940042,37.492 38.2930042,40.293 C37.9020042,40.684 37.9020042,41.316 38.2930042,41.707 C38.4880042,41.902 38.7440042,42 39.0000042,42 C39.2560042,42 39.5120042,41.902 39.7070042,41.707 C42.4120042,39.002 45.0080042,32.003 45.7460042,29.906 C47.0410042,29.574 48.0000042,28.397 48.0000042,27 L48.0000042,23 C48.0000042,21.696 47.1640042,20.584 46.0000042,20.171 L46.0000042,15 C46.0000042,11.052 43.9210042,3.759 36.2310042,3.055 C36.2150042,2.583 36.0590042,2.203 35.8860042,1.922 C34.9040042,0.334 32.1430042,0 30.0000042,0 C12.2060042,0 12.0000042,16.83 12.0000042,17 C12.0000042,17.552 12.4470042,17.999 12.9990042,17.999 L12.9990042,17.999 Z M12.0000042,27 L12.0000042,23 C12.0000042,21.346 13.3460042,20 15.0000042,20 C15.5520042,20 16.0000042,20.448 16.0000042,21 C16.0080042,21.31 16.0980042,21.668 16.4170042,21.86 C17.2330042,19.865 18.0000042,16.624 18.0000042,15 C18.0000042,14.448 18.4480042,14 19.0000042,14 C25.2420042,14 34.6870042,12.91 36.1430042,10.485 C36.3740042,10.099 36.8330042,9.917 37.2670042,10.036 C37.7000042,10.156 38.0000042,10.551 38.0000042,11 C38.0000042,14.545 41.6700042,18.256 41.7070042,18.293 C42.0980042,18.684 42.0980042,19.316 41.7070042,19.707 C41.3160042,20.098 40.6840042,20.098 40.2930042,19.707 C40.1450042,19.559 37.1910042,16.57 36.2710042,13.018 C32.2140042,15.55 23.0950042,15.935 19.9430042,15.991 C19.7410042,17.966 19.0280042,20.779 18.2410042,22.681 L20.1490042,24.112 C20.5310042,22.893 21.6570042,22 23.0000042,22 L27.0000042,22 C28.6540042,22 30.0000042,23.346 30.0000042,25 C30.0000042,23.346 31.3460042,22 33.0000042,22 L37.0000042,22 C38.3430042,22 39.4700042,22.893 39.8510042,24.112 L42.4000042,22.2 C42.8440042,21.868 43.4690042,21.959 43.8000042,22.4 C44.1310042,22.842 44.0420042,23.469 43.6000042,23.8 L39.9450042,26.541 C39.6780042,28.489 38.0210042,30 36.0000042,30 L34.0000042,30 C31.7940042,30 30.0000042,28.206 30.0000042,26 C30.0000042,28.206 28.2060042,30 26.0000042,30 L24.0000042,30 C21.9790042,30 20.3220042,28.489 20.0550042,26.541 L16.6330042,23.975 C15.3880042,23.851 14.6460042,23.118 14.2840042,22.303 C14.1080042,22.483 14.0000042,22.729 14.0000042,23 L14.0000042,27 C14.0000042,27.551 14.4490042,28 15.0000042,28 C15.4300042,28 15.8130042,28.275 15.9490042,28.684 C15.9780042,28.772 18.9090042,37.495 21.7070042,40.293 C22.0980042,40.684 22.0980042,41.316 21.7070042,41.707 C21.5120042,41.902 21.2560042,42 21.0000042,42 C20.7440042,42 20.4880042,41.902 20.2930042,41.707 C17.5880042,39.002 14.9920042,32.003 14.2540042,29.906 C12.9590042,29.574 12.0000042,28.397 12.0000042,27 L12.0000042,27 Z M32.0000042,26 C32.0000042,27.103 32.8970042,28 34.0000042,28 L36.0000042,28 C37.1030042,28 38.0000042,27.103 38.0000042,26 L38.0000042,25 C38.0000042,24.449 37.5510042,24 37.0000042,24 L33.0000042,24 C32.4490042,24 32.0000042,24.449 32.0000042,25 L32.0000042,26 L32.0000042,26 Z M22.0000042,26 C22.0000042,27.103 22.8970042,28 24.0000042,28 L26.0000042,28 C27.1030042,28 28.0000042,27.103 28.0000042,26 L28.0000042,25 C28.0000042,24.449 27.5510042,24 27.0000042,24 L23.0000042,24 C22.4490042,24 22.0000042,24.449 22.0000042,25 L22.0000042,26 L22.0000042,26 Z M30.0000042,41 C26.6830042,41 25.2880042,37.835 25.0130042,36.162 C24.9660042,35.872 25.0480042,35.576 25.2380042,35.353 C25.4280042,35.129 25.7070042,35 26.0000042,35 L34.0000042,35 C34.2930042,35 34.5720042,35.129 34.7620042,35.353 C34.9520042,35.576 35.0340042,35.872 34.9870042,36.162 C34.7120042,37.835 33.3170042,41 30.0000042,41 L30.0000042,41 Z M30.0000042,39 C31.4680042,39 32.2520042,37.903 32.6490042,37 L27.3510042,37 C27.7480042,37.903 28.5310042,39 30.0000042,39 L30.0000042,39 Z" id="employee-rank" sketch:type="MSShapeGroup"></path>
        </g>
    </g>
</svg>