<?xml version="1.0" encoding="UTF-8" standalone="no"?>
<svg width="56px" height="60px" viewBox="0 0 56 60" version="1.1" xmlns="http://www.w3.org/2000/svg" xmlns:xlink="http://www.w3.org/1999/xlink" xmlns:sketch="http://www.bohemiancoding.com/sketch/ns">
    <!-- Generator: Sketch 3.4 (15575) - http://www.bohemiancoding.com/sketch -->
    <title>paper-exam</title>
    <desc>Created with Sketch.</desc>
    <defs></defs>
    <g id="Education" stroke="none" stroke-width="1" fill="none" fill-rule="evenodd" sketch:type="MSPage">
        <g id="Icon-7" sketch:type="MSArtboardGroup" transform="translate(-4.000000, 0.000000)" fill="#000000">
            <path d="M36,59 C36,59.552 35.552,60 35,60 L9,60 C6.243,60 4,57.757 4,55 L4,5 C4,2.243 6.243,0 9,0 L41,0 C41.265,0 41.52,0.105 41.707,0.293 L51.707,10.293 C52.098,10.684 52.098,11.316 51.707,11.707 C51.316,12.098 50.684,12.098 50.293,11.707 L40.586,2 L9,2 C7.346,2 6,3.346 6,5 L6,55 C6,56.654 7.346,58 9,58 L35,58 C35.552,58 36,58.448 36,59 L36,59 Z M42,11 L42,6 C42,5.448 41.552,5 41,5 C40.448,5 40,5.448 40,6 L40,11 C40,13.757 42.243,16 45,16 L54,16 L54,35 C54,35.552 54.448,36 55,36 C55.552,36 56,35.552 56,35 L56,15 C56,14.448 55.552,14 55,14 L45,14 C43.346,14 42,12.654 42,11 L42,11 Z M27,20 L37,20 C37.552,20 38,19.552 38,19 C38,18.448 37.552,18 37,18 L27,18 C26.448,18 26,18.448 26,19 C26,19.552 26.448,20 27,20 L27,20 Z M34,25 C34,24.448 33.552,24 33,24 L27,24 C26.448,24 26,24.448 26,25 C26,25.552 26.448,26 27,26 L33,26 C33.552,26 34,25.552 34,25 L34,25 Z M45,24 L37,24 C36.448,24 36,24.448 36,25 C36,25.552 36.448,26 37,26 L45,26 C45.552,26 46,25.552 46,25 C46,24.448 45.552,24 45,24 L45,24 Z M27,30 C26.448,30 26,30.448 26,31 C26,31.552 26.448,32 27,32 L29,32 C29.552,32 30,31.552 30,31 C30,30.448 29.552,30 29,30 L27,30 L27,30 Z M39,42 C38.448,42 38,42.448 38,43 C38,43.552 38.448,44 39,44 L41,44 C41.552,44 42,43.552 42,43 C42,42.448 41.552,42 41,42 L39,42 L39,42 Z M33,32 L43,32 C43.552,32 44,31.552 44,31 C44,30.448 43.552,30 43,30 L33,30 C32.448,30 32,30.448 32,31 C32,31.552 32.448,32 33,32 L33,32 Z M35,36 L27,36 C26.448,36 26,36.448 26,37 C26,37.552 26.448,38 27,38 L35,38 C35.552,38 36,37.552 36,37 C36,36.448 35.552,36 35,36 L35,36 Z M35,42 L27,42 C26.448,42 26,42.448 26,43 C26,43.552 26.448,44 27,44 L35,44 C35.552,44 36,43.552 36,43 C36,42.448 35.552,42 35,42 L35,42 Z M46,37 C46,36.448 45.552,36 45,36 L39,36 C38.448,36 38,36.448 38,37 C38,37.552 38.448,38 39,38 L45,38 C45.552,38 46,37.552 46,37 L46,37 Z M35,48 L27,48 C26.448,48 26,48.448 26,49 C26,49.552 26.448,50 27,50 L35,50 C35.552,50 36,49.552 36,49 C36,48.448 35.552,48 35,48 L35,48 Z M58.809,46.605 L45.707,59.707 C45.52,59.894 45.265,60 45,60 L39,60 C38.448,60 38,59.552 38,59 L38,53 C38,52.735 38.106,52.48 38.293,52.293 L51.395,39.191 C52.93,37.657 55.272,37.654 56.809,39.191 L58.809,41.191 C60.402,42.785 60.402,45.012 58.809,46.605 L58.809,46.605 Z M54.688,47.898 L53.102,46.312 L44.414,55 L46,56.586 L54.688,47.898 L54.688,47.898 Z M51.688,44.898 L50.102,43.312 L41.414,52 L43,53.586 L51.688,44.898 L51.688,44.898 Z M44.586,58 L40,53.414 L40,58 L44.586,58 L44.586,58 Z M57.395,42.605 L55.395,40.605 C54.601,39.812 53.599,39.816 52.809,40.605 L51.516,41.898 L56.102,46.484 L57.395,45.191 C58.204,44.382 58.204,43.415 57.395,42.605 L57.395,42.605 Z M22,25 C22,25.552 21.552,26 21,26 L15,26 C14.448,26 14,25.552 14,25 L14,19 C14,18.448 14.448,18 15,18 L21,18 C21.552,18 22,18.448 22,19 L22,25 L22,25 Z M16,24 L20,24 L20,20 L16,20 L16,24 Z M14,43 C14,42.448 14.448,42 15,42 L21,42 C21.552,42 22,42.448 22,43 L22,49 C22,49.552 21.552,50 21,50 L15,50 C14.448,50 14,49.552 14,49 L14,43 L14,43 Z M16,48 L20,48 L20,44 L16,44 L16,48 Z M16.293,37.707 C16.481,37.895 16.736,38 17,38 C17.033,38 17.065,37.999 17.099,37.995 C17.397,37.966 17.666,37.804 17.832,37.555 L21.832,31.555 C22.138,31.095 22.014,30.474 21.555,30.168 C21.094,29.861 20.475,29.986 20.168,30.445 L16.845,35.43 L15.707,34.293 C15.316,33.902 14.684,33.902 14.293,34.293 C13.902,34.684 13.902,35.316 14.293,35.707 L16.293,37.707 L16.293,37.707 Z" id="paper-exam" sketch:type="MSShapeGroup"></path>
        </g>
    </g>
</svg>